<mxfile host="app.diagrams.net" modified="2023-07-05T19:47:47.882Z" agent="Mozilla/5.0 (Windows NT 10.0; Win64; x64) AppleWebKit/537.36 (KHTML, like Gecko) Chrome/114.0.0.0 Safari/537.36" etag="mhKEw325w0JE8UE240ZY" version="21.5.1" type="device">
  <diagram name="Seite-1" id="QWT69SBCFYbSELcroPP_">
    <mxGraphModel dx="1247" dy="657" grid="1" gridSize="10" guides="1" tooltips="1" connect="1" arrows="1" fold="1" page="1" pageScale="1" pageWidth="827" pageHeight="1169" math="0" shadow="0">
      <root>
        <mxCell id="0" />
        <mxCell id="1" parent="0" />
        <mxCell id="GSlVqZB73MtiapEdAEiA-9" style="edgeStyle=orthogonalEdgeStyle;rounded=0;orthogonalLoop=1;jettySize=auto;html=1;entryX=0.5;entryY=0;entryDx=0;entryDy=0;strokeWidth=2;" edge="1" parent="1" source="GSlVqZB73MtiapEdAEiA-1" target="GSlVqZB73MtiapEdAEiA-4">
          <mxGeometry relative="1" as="geometry" />
        </mxCell>
        <mxCell id="GSlVqZB73MtiapEdAEiA-1" value="INIT" style="ellipse;whiteSpace=wrap;html=1;aspect=fixed;strokeWidth=2;" vertex="1" parent="1">
          <mxGeometry x="440" y="40" width="80" height="80" as="geometry" />
        </mxCell>
        <mxCell id="GSlVqZB73MtiapEdAEiA-2" value="PG MODE" style="ellipse;whiteSpace=wrap;html=1;aspect=fixed;strokeWidth=2;" vertex="1" parent="1">
          <mxGeometry x="600" y="200" width="80" height="80" as="geometry" />
        </mxCell>
        <mxCell id="GSlVqZB73MtiapEdAEiA-11" value="1" style="rounded=0;orthogonalLoop=1;jettySize=auto;html=1;exitX=1;exitY=0;exitDx=0;exitDy=0;entryX=0;entryY=1;entryDx=0;entryDy=0;strokeWidth=2;" edge="1" parent="1" source="GSlVqZB73MtiapEdAEiA-3" target="GSlVqZB73MtiapEdAEiA-2">
          <mxGeometry relative="1" as="geometry" />
        </mxCell>
        <mxCell id="GSlVqZB73MtiapEdAEiA-13" value="3" style="edgeStyle=orthogonalEdgeStyle;rounded=0;orthogonalLoop=1;jettySize=auto;html=1;exitX=0;exitY=0;exitDx=0;exitDy=0;entryX=0;entryY=1;entryDx=0;entryDy=0;strokeWidth=2;" edge="1" parent="1" source="GSlVqZB73MtiapEdAEiA-3" target="GSlVqZB73MtiapEdAEiA-4">
          <mxGeometry relative="1" as="geometry" />
        </mxCell>
        <mxCell id="GSlVqZB73MtiapEdAEiA-15" value="4" style="edgeStyle=orthogonalEdgeStyle;rounded=0;orthogonalLoop=1;jettySize=auto;html=1;exitX=1;exitY=1;exitDx=0;exitDy=0;entryX=1;entryY=0;entryDx=0;entryDy=0;strokeWidth=2;" edge="1" parent="1" source="GSlVqZB73MtiapEdAEiA-3" target="GSlVqZB73MtiapEdAEiA-5">
          <mxGeometry relative="1" as="geometry" />
        </mxCell>
        <mxCell id="GSlVqZB73MtiapEdAEiA-3" value="IDLE" style="ellipse;whiteSpace=wrap;html=1;aspect=fixed;strokeWidth=2;" vertex="1" parent="1">
          <mxGeometry x="440" y="360" width="80" height="80" as="geometry" />
        </mxCell>
        <mxCell id="GSlVqZB73MtiapEdAEiA-10" value="1" style="edgeStyle=orthogonalEdgeStyle;rounded=0;orthogonalLoop=1;jettySize=auto;html=1;entryX=0;entryY=0.5;entryDx=0;entryDy=0;strokeWidth=2;" edge="1" parent="1" source="GSlVqZB73MtiapEdAEiA-4" target="GSlVqZB73MtiapEdAEiA-2">
          <mxGeometry relative="1" as="geometry" />
        </mxCell>
        <mxCell id="GSlVqZB73MtiapEdAEiA-12" value="2" style="edgeStyle=orthogonalEdgeStyle;rounded=0;orthogonalLoop=1;jettySize=auto;html=1;exitX=1;exitY=1;exitDx=0;exitDy=0;entryX=1;entryY=0;entryDx=0;entryDy=0;strokeWidth=2;" edge="1" parent="1" source="GSlVqZB73MtiapEdAEiA-4" target="GSlVqZB73MtiapEdAEiA-3">
          <mxGeometry relative="1" as="geometry" />
        </mxCell>
        <mxCell id="GSlVqZB73MtiapEdAEiA-4" value="NO&lt;br&gt;TRIGGER" style="ellipse;whiteSpace=wrap;html=1;aspect=fixed;strokeWidth=2;" vertex="1" parent="1">
          <mxGeometry x="440" y="200" width="80" height="80" as="geometry" />
        </mxCell>
        <mxCell id="GSlVqZB73MtiapEdAEiA-14" value="5" style="edgeStyle=orthogonalEdgeStyle;rounded=0;orthogonalLoop=1;jettySize=auto;html=1;exitX=0;exitY=0;exitDx=0;exitDy=0;entryX=0;entryY=1;entryDx=0;entryDy=0;strokeWidth=2;" edge="1" parent="1" source="GSlVqZB73MtiapEdAEiA-5" target="GSlVqZB73MtiapEdAEiA-3">
          <mxGeometry relative="1" as="geometry" />
        </mxCell>
        <mxCell id="GSlVqZB73MtiapEdAEiA-16" value="6" style="edgeStyle=orthogonalEdgeStyle;rounded=0;orthogonalLoop=1;jettySize=auto;html=1;entryX=1;entryY=0.5;entryDx=0;entryDy=0;strokeWidth=2;" edge="1" parent="1" source="GSlVqZB73MtiapEdAEiA-5" target="GSlVqZB73MtiapEdAEiA-6">
          <mxGeometry relative="1" as="geometry" />
        </mxCell>
        <mxCell id="GSlVqZB73MtiapEdAEiA-5" value="ARMED" style="ellipse;whiteSpace=wrap;html=1;aspect=fixed;strokeWidth=2;" vertex="1" parent="1">
          <mxGeometry x="440" y="520" width="80" height="80" as="geometry" />
        </mxCell>
        <mxCell id="GSlVqZB73MtiapEdAEiA-18" value="5" style="rounded=0;orthogonalLoop=1;jettySize=auto;html=1;exitX=1;exitY=0;exitDx=0;exitDy=0;entryX=0;entryY=1;entryDx=0;entryDy=0;strokeWidth=2;" edge="1" parent="1" source="GSlVqZB73MtiapEdAEiA-6" target="GSlVqZB73MtiapEdAEiA-3">
          <mxGeometry relative="1" as="geometry" />
        </mxCell>
        <mxCell id="GSlVqZB73MtiapEdAEiA-19" value="7" style="edgeStyle=orthogonalEdgeStyle;rounded=0;orthogonalLoop=1;jettySize=auto;html=1;strokeWidth=2;" edge="1" parent="1" source="GSlVqZB73MtiapEdAEiA-6" target="GSlVqZB73MtiapEdAEiA-7">
          <mxGeometry relative="1" as="geometry" />
        </mxCell>
        <mxCell id="GSlVqZB73MtiapEdAEiA-6" value="WAIT" style="ellipse;whiteSpace=wrap;html=1;aspect=fixed;strokeWidth=2;" vertex="1" parent="1">
          <mxGeometry x="280" y="520" width="80" height="80" as="geometry" />
        </mxCell>
        <mxCell id="GSlVqZB73MtiapEdAEiA-20" value="5" style="edgeStyle=orthogonalEdgeStyle;rounded=0;orthogonalLoop=1;jettySize=auto;html=1;strokeWidth=2;" edge="1" parent="1" source="GSlVqZB73MtiapEdAEiA-7" target="GSlVqZB73MtiapEdAEiA-3">
          <mxGeometry relative="1" as="geometry" />
        </mxCell>
        <mxCell id="GSlVqZB73MtiapEdAEiA-23" value="8" style="edgeStyle=orthogonalEdgeStyle;rounded=0;orthogonalLoop=1;jettySize=auto;html=1;entryX=1;entryY=0.5;entryDx=0;entryDy=0;strokeWidth=2;" edge="1" parent="1" source="GSlVqZB73MtiapEdAEiA-7" target="GSlVqZB73MtiapEdAEiA-8">
          <mxGeometry relative="1" as="geometry" />
        </mxCell>
        <mxCell id="GSlVqZB73MtiapEdAEiA-7" value="FIRE" style="ellipse;whiteSpace=wrap;html=1;aspect=fixed;strokeWidth=2;" vertex="1" parent="1">
          <mxGeometry x="280" y="360" width="80" height="80" as="geometry" />
        </mxCell>
        <mxCell id="GSlVqZB73MtiapEdAEiA-8" value="END" style="ellipse;whiteSpace=wrap;html=1;aspect=fixed;strokeWidth=2;fontSize=14;" vertex="1" parent="1">
          <mxGeometry x="120" y="360" width="80" height="80" as="geometry" />
        </mxCell>
      </root>
    </mxGraphModel>
  </diagram>
</mxfile>
